<?xml version="1.0" encoding="UTF-8" standalone="no"?>
<!-- Created with Inkscape (http://www.inkscape.org/) -->

<svg
   xmlns:dc="http://purl.org/dc/elements/1.1/"
   xmlns:cc="http://creativecommons.org/ns#"
   xmlns:rdf="http://www.w3.org/1999/02/22-rdf-syntax-ns#"
   xmlns:svg="http://www.w3.org/2000/svg"
   xmlns="http://www.w3.org/2000/svg"
   xmlns:sodipodi="http://sodipodi.sourceforge.net/DTD/sodipodi-0.dtd"
   xmlns:inkscape="http://www.inkscape.org/namespaces/inkscape"
   width="40"
   height="40"
   id="svg2"
   inkscape:label="Pozadí"
   version="1.1"
   inkscape:version="0.47 r22583"
   sodipodi:docname="icon-slimrat.svg"
   inkscape:export-filename="/home/premek/programovani/perl/slimrat/svn/trunk/icon/icon-slimrat-16.png"
   inkscape:export-xdpi="36"
   inkscape:export-ydpi="36">
  <defs
     id="defs3">
    <inkscape:perspective
       sodipodi:type="inkscape:persp3d"
       inkscape:vp_x="0 : 526.18109 : 1"
       inkscape:vp_y="0 : 1000 : 0"
       inkscape:vp_z="744.09448 : 526.18109 : 1"
       inkscape:persp3d-origin="372.04724 : 350.78739 : 1"
       id="perspective9" />
    <filter
       inkscape:collect="always"
       id="filter3770">
      <feGaussianBlur
         inkscape:collect="always"
         stdDeviation="0.8035155"
         id="feGaussianBlur3772" />
    </filter>
  </defs>
  <sodipodi:namedview
     id="base"
     pagecolor="#ffffff"
     bordercolor="#666666"
     borderopacity="1.0"
     inkscape:pageopacity="0.0"
     inkscape:pageshadow="2"
     inkscape:zoom="5.6"
     inkscape:cx="41.511996"
     inkscape:cy="7.1343403"
     inkscape:document-units="px"
     inkscape:current-layer="layer1"
     showgrid="false"
     inkscape:window-width="936"
     inkscape:window-height="801"
     inkscape:window-x="61"
     inkscape:window-y="91"
     inkscape:window-maximized="0" />
  <metadata
     id="metadata6">
    <rdf:RDF>
      <cc:Work
         rdf:about="">
        <dc:format>image/svg+xml</dc:format>
        <dc:type
           rdf:resource="http://purl.org/dc/dcmitype/StillImage" />
        <dc:title></dc:title>
      </cc:Work>
    </rdf:RDF>
  </metadata>
  <g
     inkscape:label="Vrstva 1"
     inkscape:groupmode="layer"
     id="layer1"
     transform="translate(-104.13869,-132.12274)">
    <path
       style="color:#000000;fill:#000000;fill-opacity:1;fill-rule:nonzero;stroke:none;stroke-width:0.30000001;marker:none;visibility:visible;display:inline;overflow:visible;enable-background:accumulate"
       d="m 114.61041,134.08396 c -4.71358,0 -8.52805,3.77938 -8.52805,8.49297 l 0,19.09162 c 0,4.71359 3.81448,8.49297 8.52806,8.49297 l 19.05654,0 c 4.71358,0 8.52806,-3.77938 8.52806,-8.49297 l 0,-19.09162 c 0,-4.71359 -3.81448,-8.49297 -8.52806,-8.49297 l -19.05655,0 z"
       id="rect2866"
       sodipodi:nodetypes="ccccccccc" />
    <path
       id="path3746"
       d="m 116.22466,141.24332 5.19404,0 c 1.30594,0 2.24961,1.04542 2.1408,2.35136 l -0.35096,3.68496 -3.50949,0 0.17547,-1.96531 -2.84268,0 -0.31585,3.47439 c -0.0362,0.43531 0.19995,0.6609 0.52642,0.84228 l 3.75515,1.96532 c 0.87063,0.43531 1.79575,0.70595 1.61437,2.7374 l -0.56152,6.35218 c -0.10882,1.30593 -1.2209,2.31626 -2.52683,2.31626 l -5.19405,0 c -1.30593,0 -2.28471,-1.01033 -2.17588,-2.31626 l 0.38604,-4.24649 3.54459,0 -0.24567,2.49174 2.84269,0 0.31586,-3.47439 c 0,-0.29021 -0.1333,-0.41879 -0.35096,-0.49134 l -3.96571,-2.10569 c -1.16084,-0.61669 -1.68692,-1.476 -1.61438,-2.49174 l 0.56153,-6.77331 c 0.10882,-1.30594 1.29108,-2.35136 2.59702,-2.35136 z m 10.17751,0 7.5805,0 c 1.30594,0 2.24961,1.04542 2.14079,2.35136 l -0.94756,11.44094 c -0.10883,1.12455 -0.94959,2.02723 -1.96532,2.28117 l 0.91247,5.68537 -3.82535,0 -0.98265,-5.61518 -0.73699,0 -0.35096,5.61518 -3.68496,0 1.86003,-21.75884 z m 3.26382,4.07101 -0.73699,7.96654 2.84269,0 0.737,-7.96654 -2.8427,0 z"
       style="color:#000000;fill:#ffffff;fill-opacity:1;fill-rule:nonzero;stroke:none;stroke-width:0.2;marker:none;visibility:visible;display:inline;overflow:visible;enable-background:accumulate"
       sodipodi:nodetypes="cccccccccccccccccccccccccccccccccccccccccc" />
  </g>
</svg>
